<svg
        xmlns="http://www.w3.org/2000/svg"
        viewBox="0 0 16 16">
    <path
            fill="#FFF"
            d="M1 1h14v14H1z"
            id="path43" />
    <path
            d="m 1,1.328642 v 14 h 14 v -14 z m 13,13 H 2 v -12 h 12 z"
            id="path45"
            style="fill:#999999" />
    <g
            aria-label="ยง"

            style="font-style:normal;font-weight:normal;font-size:12px;line-height:1.25;font-family:sans-serif;letter-spacing:0px;word-spacing:0px;fill:#666666;fill-opacity:1;stroke:none"
            id="text66"
            transform="translate(1.8072838,-1.676642)">
        <path
                d="m 4.8427162,13.269284 q 0,0.828 0.36,1.14 0.372,0.324
0.864,0.324 0.516,0 0.828,-0.288 0.324,-0.288 0.324,-0.744 0,-0.6
-0.66,-1.056 l -2.04,-1.404 q -0.588,-0.408 -0.852,-0.852 -0.252,-0.444
-0.252,-1.032 0,-0.6 0.3,-1.02 0.3,-0.432 0.96,-0.78 -0.528,-0.612
-0.528,-1.224 0,-0.828 0.636,-1.404 0.648,-0.576 1.584,-0.576 0.936,0
1.512,0.588 0.588,0.588 0.588,1.536 v 0.336 h -1.008 v -0.312 q 0,-0.564
-0.324,-0.888 -0.312,-0.336 -0.84,-0.336 -0.456,0 -0.768,0.288
-0.3,0.288 -0.3,0.732 0,0.264 0.144,0.468 0.156,0.204 0.54,0.456 l
1.752,1.128 q 0.732,0.468 1.02,0.912 0.288,0.444 0.288,1.092 0,1.38
-1.308,1.872 0.36,0.408 0.492,0.72 0.144,0.312 0.144,0.696 0,0.864
-0.648,1.44 -0.636,0.576 -1.596,0.576 -0.288,0 -0.564,-0.048
-0.276,-0.048 -0.588,-0.216 -0.312,-0.156 -0.552,-0.408 -0.228,-0.252
-0.384,-0.696 -0.144,-0.444 -0.144,-1.02 z m 0.312,-2.916 1.992,1.476 q
0.876,-0.468 0.876,-1.224 0,-0.732 -0.876,-1.344 l -1.932,-1.308 q
-0.468,0.312 -0.66,0.588 -0.192,0.264 -0.192,0.624 0,0.36 0.156,0.6
0.156,0.24 0.636,0.588 z"

                style="font-style:normal;font-variant:normal;font-weight:normal;font-stretch:normal;font-family:FreeSans;-inkscape-font-specification:FreeSans"
                id="path68" />
    </g>
</svg>