<svg xmlns="http://www.w3.org/2000/svg" viewBox="0 0 64 64"><defs><style>.a{fill:#000842;}.b{fill:#fff;stroke:#fff;}.b,.f,.g{stroke-miterlimit:10;}.c,.d,.e{fill:#000882;}.d{opacity:0.8;}.d,.e{isolation:isolate;}.f{fill:#f6ae2d;}.f,.g{stroke:#000842;}.g{fill:#f80;}</style></defs><rect class="a" width="64" height="64"/><path class="b" d="M10.65,11h32V47h-32Z"/><path class="c" d="M18.65,39h8v4h-8Z"/><path class="d" d="M28.65,39h8v4h-8Z"/><path class="c" d="M18.65,15h14v2h-14Zm0,14h2v2h-2Zm0,4h2v2h-2Z"/><path class="e" d="M22.65,29h16v2h-16Zm0,4h16v2h-16Zm-4-14h20v8h-20Z"/><path class="c" d="M10.65,11h4v4h-4Z"/><path class="d" d="M12.65,11h2V47h-2Z"/><path class="f" d="M28.57,33.86c.73.72,1.51,1.55,1.51,1.55l6.36-5.83s-2.68-3.14-1.76-2.33a9.9,9.9,0,0,0-2.4-9.46,9.16,9.16,0,0,0-9.08-2.5l5.31,5.49-1.4,5.38-5.2,1.44L16.6,22.11A9.91,9.91,0,0,0,19,31.5,9.18,9.18,0,0,0,28.57,33.86Z"/><path class="f" d="M46.29,39.19l-6.41,6.33L50.45,56.47a4.33,4.33,0,0,0,6.26,0,4.68,4.68,0,0,0,0-6.47Z"/><polygon class="g" points="60.25 20.83 53.52 13.87 33.68 34.38 36.1 36.89 24.23 49.16 21.52 50.61 17.68 56.87 18.66 57.88 24.71 53.91 26.11 51.11 37.99 38.84 40.41 41.34 60.25 20.83"/></svg>