<svg xmlns="http://www.w3.org/2000/svg" viewBox="0 0 32 32"><defs><style>.a{fill:#fff;}.b{fill:#000842;}.c{fill:#f6ae2d;}</style></defs><rect class="a" width="32" height="32"/><path class="b" d="M7.35,4a.69.69,0,0,0-.57.44L2.43,16.51a.64.64,0,0,0-.08.3V26.93A.71.71,0,0,0,3,27.6h26.3a.7.7,0,0,0,.67-.67V16.81a.93.93,0,0,0-.05-.27L25.57,4.44A.69.69,0,0,0,24.94,4Z"/><path class="c" d="M7.88,5.35h16.6l3.89,10.79H22.21A14.41,14.41,0,0,1,20.15,19a6,6,0,0,1-8,0,16.38,16.38,0,0,1-2.08-2.86H4Z"/><rect class="a" x="8.76" y="7.02" width="14.83" height="1.35" rx="0.45"/><rect class="a" x="7.41" y="9.96" width="17.53" height="1.35" rx="0.45"/><rect class="a" x="6.74" y="13.11" width="18.88" height="1.35" rx="0.45"/></svg>